<svg id="Icons" height="512" viewBox="0 0 74 74" width="512" xmlns="http://www.w3.org/2000/svg"><path d="m37.024 71.565a35.15 35.15 0 0 1 -10.359-1.548 9.74 9.74 0 0 1 -6.443-6.333 10.03 10.03 0 0 1 1.431-9.07l3.483-4.745a5.377 5.377 0 0 0 .12-6.355 5.607 5.607 0 0 0 -6.244-2.236l-7.922 2.422a7.035 7.035 0 0 1 -9.09-6.723c0-19.047 15.712-34.542 35.024-34.542a34.8 34.8 0 0 1 34.976 34.541 34.823 34.823 0 0 1 -34.976 34.589zm-16.424-32.496a7.561 7.561 0 0 1 6.3 3.316 7.413 7.413 0 0 1 -.159 8.667l-3.476 4.748a7.923 7.923 0 0 0 -1.144 7.259 7.765 7.765 0 0 0 5.133 5.05 33.16 33.16 0 0 0 9.77 1.459 32.821 32.821 0 0 0 32.976-32.592 32.8 32.8 0 0 0 -32.976-32.541c-18.21 0-33.024 14.598-33.024 32.541a5.035 5.035 0 0 0 6.506 4.809l7.956-2.429a8.284 8.284 0 0 1 2.138-.287z"/><path d="m36.976 21.839a6.526 6.526 0 1 1 6.55-6.5 6.51 6.51 0 0 1 -6.55 6.5zm0-11.052a4.526 4.526 0 1 0 4.55 4.55 4.531 4.531 0 0 0 -4.55-4.55z"/><path d="m55.492 32.5a6.526 6.526 0 1 1 6.55-6.5 6.51 6.51 0 0 1 -6.55 6.5zm0-11.052a4.526 4.526 0 1 0 4.55 4.552 4.531 4.531 0 0 0 -4.55-4.555z"/><path d="m55.492 54.643a6.526 6.526 0 1 1 6.55-6.5 6.51 6.51 0 0 1 -6.55 6.5zm0-11.052a4.526 4.526 0 1 0 4.55 4.55 4.531 4.531 0 0 0 -4.55-4.55z"/><path d="m35.857 63.873a6.526 6.526 0 1 1 6.55-6.5 6.509 6.509 0 0 1 -6.55 6.5zm0-11.051a4.526 4.526 0 1 0 4.55 4.55 4.531 4.531 0 0 0 -4.55-4.55z"/><path d="m18.9 33.616a6.526 6.526 0 1 1 6.55-6.5 6.509 6.509 0 0 1 -6.55 6.5zm0-11.052a4.526 4.526 0 1 0 4.55 4.55 4.531 4.531 0 0 0 -4.55-4.55z"/></svg>