<?xml version="1.0" standalone="no"?>
<!DOCTYPE svg PUBLIC "-//W3C//DTD SVG 20010904//EN"
 "http://www.w3.org/TR/2001/REC-SVG-20010904/DTD/svg10.dtd">
<svg version="1.0" xmlns="http://www.w3.org/2000/svg"
 width="400.000000pt" height="77.000000pt" viewBox="0 0 400.000000 77.000000"
 preserveAspectRatio="xMidYMid meet">
<metadata>
Created by potrace 1.16, written by Peter Selinger 2001-2019
</metadata>
<g transform="translate(0.000000,77.000000) scale(0.100000,-0.100000)"
fill="#000000" stroke="none">
<path d="M2630 759 c-71 -28 -140 -114 -140 -171 1 -60 55 -98 140 -98 57 0
80 -23 80 -79 0 -67 17 -109 51 -126 38 -20 57 -19 103 6 44 24 65 45 103 108
35 58 37 165 5 226 -56 105 -124 145 -242 144 -41 0 -86 -5 -100 -10z m157
-22 c145 -38 218 -193 151 -322 -28 -53 -79 -100 -121 -110 -20 -5 -32 -1 -51
19 -22 21 -26 34 -26 81 0 31 -4 65 -10 75 -15 28 -68 50 -122 50 -50 0 -88
24 -88 55 0 20 38 95 48 95 5 0 17 8 28 18 24 23 83 46 129 51 6 0 34 -5 62
-12z"/>
<path d="M1559 388 c-7 -18 -23 -55 -35 -83 -28 -64 -54 -126 -54 -131 0 -2 9
-4 19 -4 13 0 26 14 38 40 18 39 19 39 74 40 l56 0 13 -40 c10 -32 18 -40 37
-40 26 0 29 7 9 35 -7 11 -22 45 -34 75 -40 107 -61 140 -86 140 -17 0 -27 -9
-37 -32z"/>
<path d="M1890 358 c-31 -16 -64 -80 -55 -108 3 -11 18 -34 32 -50 33 -39 98
-43 131 -7 12 13 22 26 22 30 0 11 -26 8 -55 -7 -27 -14 -48 -12 -72 7 -27 20
-10 27 63 27 l77 0 -6 37 c-4 20 -14 45 -24 54 -25 24 -82 32 -113 17z"/>
<path d="M2245 354 c-39 -20 -45 -30 -45 -87 0 -39 5 -52 26 -72 35 -32 100
-34 132 -5 42 39 21 53 -37 24 -29 -14 -34 -14 -56 0 -41 27 -29 36 50 36 74
0 75 0 75 26 0 36 -16 61 -50 79 -37 19 -57 19 -95 -1z"/>
</g>
</svg>
