<?xml version="1.0" standalone="no"?>
<!DOCTYPE svg PUBLIC "-//W3C//DTD SVG 20010904//EN"
 "http://www.w3.org/TR/2001/REC-SVG-20010904/DTD/svg10.dtd">
<svg version="1.0" xmlns="http://www.w3.org/2000/svg"
 width="400.000000pt" height="398.000000pt" viewBox="0 0 400.000000 398.000000"
 preserveAspectRatio="xMidYMid meet">
<metadata>
Created by potrace 1.16, written by Peter Selinger 2001-2019
</metadata>
<g transform="translate(0.000000,398.000000) scale(0.100000,-0.100000)"
fill="#000000" stroke="none">
<path d="M1500 3970 c0 -5 -45 -11 -102 -12 -96 -3 -104 -5 -113 -25 -8 -20
-17 -23 -62 -23 -42 0 -54 -4 -63 -20 -8 -15 -21 -20 -51 -20 -32 0 -42 -4
-46 -20 -4 -16 -14 -20 -44 -20 -35 0 -39 -3 -39 -25 0 -23 -4 -25 -45 -25
-38 0 -45 -3 -45 -20 0 -17 -7 -20 -39 -20 -31 0 -41 -4 -46 -20 -3 -11 -15
-20 -26 -20 -14 0 -19 -7 -19 -25 0 -22 -4 -25 -39 -25 -31 0 -41 -4 -46 -20
-3 -11 -15 -20 -26 -20 -12 0 -19 -7 -19 -20 0 -13 -7 -20 -20 -20 -15 0 -20
-7 -20 -25 0 -20 -5 -25 -25 -25 -18 0 -25 -5 -25 -20 0 -13 -7 -20 -20 -20
-13 0 -20 -7 -20 -20 0 -13 -7 -20 -20 -20 -15 0 -20 -7 -20 -25 0 -20 -5 -25
-25 -25 -18 0 -25 -5 -25 -20 0 -13 -7 -20 -20 -20 -13 0 -20 -7 -20 -20 0
-13 -7 -20 -20 -20 -15 0 -20 -7 -20 -25 0 -20 -5 -25 -25 -25 -18 0 -25 -5
-25 -20 0 -13 -7 -20 -20 -20 -13 0 -20 -7 -20 -19 0 -10 -9 -21 -20 -24 -16
-4 -20 -14 -20 -46 0 -37 -2 -41 -25 -41 -18 0 -25 -5 -25 -20 0 -11 -9 -29
-20 -40 -11 -11 -20 -31 -20 -45 0 -18 -5 -25 -20 -25 -17 0 -20 -7 -20 -45 0
-41 -2 -45 -25 -45 -22 0 -25 -4 -25 -39 0 -22 -4 -43 -10 -46 -6 -4 -10 -102
-10 -261 0 -163 4 -254 10 -254 6 0 10 -20 10 -45 0 -41 2 -45 25 -45 23 0 25
-4 25 -45 0 -38 3 -45 20 -45 13 0 20 -7 20 -20 0 -13 7 -20 20 -20 13 0 20
-7 20 -20 0 -15 7 -20 25 -20 20 0 25 -5 25 -25 0 -18 5 -25 20 -25 13 0 20
-7 20 -20 0 -13 7 -20 20 -20 13 0 20 -7 20 -20 0 -17 7 -20 45 -20 41 0 45
-2 45 -25 0 -23 4 -25 45 -25 38 0 45 -3 45 -20 0 -19 7 -20 109 -20 100 0
109 -2 114 -20 5 -19 14 -20 321 -20 l316 0 10 -25 c9 -22 15 -25 64 -25 45 0
54 -3 59 -20 4 -16 14 -20 46 -20 34 0 41 -3 41 -20 0 -13 7 -20 19 -20 12 0
21 -9 25 -25 4 -16 13 -25 26 -25 13 0 20 -7 20 -20 0 -13 7 -20 20 -20 17 0
20 -7 20 -41 0 -32 4 -42 20 -46 15 -4 20 -14 20 -39 0 -27 5 -37 25 -46 l25
-11 0 -364 c0 -356 0 -363 20 -363 18 0 20 -7 20 -86 0 -77 2 -86 19 -91 14
-4 21 -15 23 -42 2 -29 8 -37 26 -39 19 -3 22 -9 22 -48 0 -37 3 -44 20 -44
13 0 20 -7 20 -19 0 -13 8 -21 23 -23 14 -2 23 -11 25 -26 2 -14 10 -22 23
-22 12 0 19 -7 19 -20 0 -13 7 -20 19 -20 11 0 23 -9 26 -20 5 -16 15 -20 46
-20 35 0 39 -3 39 -25 0 -23 4 -25 45 -25 37 0 45 -3 45 -19 0 -15 11 -19 68
-24 87 -9 310 -9 435 0 84 5 97 8 97 24 0 14 9 19 43 21 35 2 43 7 45 26 3 18
10 22 43 22 32 0 39 3 39 20 0 15 7 20 25 20 18 0 25 5 25 20 0 17 7 20 40 20
34 0 41 4 46 25 4 16 13 25 25 25 12 0 19 7 19 20 0 13 7 20 20 20 13 0 20 7
20 20 0 15 7 20 29 20 42 0 61 10 61 31 0 12 7 19 20 19 13 0 20 7 20 20 0 14
7 20 21 20 12 0 23 8 26 19 3 11 13 21 24 24 11 3 19 14 19 26 0 14 6 21 20
21 13 0 20 7 20 20 0 14 7 20 21 20 12 0 23 8 26 19 3 11 13 21 24 24 11 3 19
14 19 26 0 14 6 21 20 21 17 0 20 7 20 39 0 33 4 40 23 43 14 2 23 11 25 26 2
14 10 22 23 22 15 0 19 7 19 39 0 30 4 40 20 44 12 3 20 14 20 25 0 14 8 22
23 24 18 2 23 10 25 40 2 26 9 39 23 43 14 5 19 16 19 46 0 32 3 39 20 39 17
0 20 7 20 50 0 35 4 50 13 50 18 0 37 43 37 85 0 28 4 35 20 35 18 0 20 7 20
85 0 69 3 85 15 85 13 0 15 59 15 475 0 414 -2 476 -15 481 -12 5 -15 25 -15
90 0 77 -2 84 -20 84 -17 0 -20 7 -20 49 0 62 -7 81 -31 81 -16 0 -19 7 -19
41 0 32 -4 42 -20 46 -16 4 -20 14 -20 44 0 32 -4 39 -19 39 -16 0 -20 8 -23
43 -2 35 -7 43 -25 45 -20 3 -23 10 -23 44 0 31 -4 41 -20 45 -15 4 -20 14
-20 40 0 26 -5 36 -19 40 -11 3 -21 15 -23 27 -2 13 -11 22 -25 24 -15 2 -23
10 -23 23 0 12 -7 19 -20 19 -13 0 -20 7 -20 20 0 13 -7 20 -20 20 -15 0 -20
7 -20 25 0 20 -5 25 -25 25 -18 0 -25 5 -25 20 0 13 -7 20 -20 20 -13 0 -20 7
-20 20 0 13 -7 20 -20 20 -15 0 -20 7 -20 25 0 20 -5 25 -25 25 -18 0 -25 5
-25 20 0 13 -7 20 -20 20 -13 0 -20 7 -20 20 0 13 -7 20 -19 20 -13 0 -21 8
-23 23 -2 14 -11 23 -25 25 -15 2 -23 10 -23 23 0 12 -7 19 -19 19 -10 0 -21
9 -24 20 -4 16 -14 20 -46 20 -37 0 -41 2 -41 25 0 18 -5 25 -19 25 -10 0 -21
9 -24 20 -4 16 -14 20 -46 20 -34 0 -41 3 -41 20 0 17 -7 20 -39 20 -33 0 -40
4 -45 25 -5 21 -12 25 -46 25 -33 0 -40 3 -40 20 0 18 -7 20 -65 20 -58 0 -65
2 -65 20 0 18 -7 20 -64 20 -59 0 -65 2 -68 23 -3 21 -8 22 -90 25 -49 1 -88
7 -88 12 0 6 -162 10 -430 10 -270 0 -430 -4 -430 -10z m610 -210 c0 -19 7
-20 104 -20 95 0 104 -2 109 -20 5 -18 14 -20 91 -20 79 0 86 -2 86 -20 0 -15
9 -21 40 -26 25 -4 45 -14 51 -25 8 -15 21 -19 64 -19 48 0 55 -2 55 -20 0
-17 7 -20 45 -20 38 0 45 -3 45 -20 0 -13 9 -22 25 -26 14 -3 25 -12 25 -19 0
-15 22 -25 56 -25 17 0 24 -6 24 -20 0 -17 7 -20 45 -20 39 0 45 -3 45 -21 0
-12 8 -23 20 -26 11 -3 20 -14 20 -24 0 -12 7 -19 19 -19 10 0 21 -9 24 -20 4
-16 14 -20 46 -20 37 0 41 -2 41 -25 0 -18 5 -25 19 -25 10 0 21 -9 24 -20 3
-12 14 -20 26 -20 14 0 21 -6 21 -20 0 -13 7 -20 20 -20 17 0 20 -7 20 -41 0
-32 4 -42 19 -46 11 -3 21 -13 24 -24 3 -11 14 -19 26 -19 16 0 21 -6 21 -25
0 -18 5 -25 20 -25 13 0 20 -7 20 -20 0 -13 7 -20 19 -20 16 0 20 -8 23 -42 2
-36 7 -44 26 -46 18 -3 22 -10 22 -43 0 -32 3 -39 20 -39 17 0 20 -7 20 -45 0
-38 3 -45 20 -45 15 0 20 -7 20 -29 0 -42 10 -61 31 -61 17 0 19 -8 19 -61 0
-52 3 -62 20 -66 17 -5 20 -14 20 -65 0 -51 3 -61 20 -65 18 -5 20 -14 20 -98
0 -116 7 -153 31 -160 18 -6 19 -19 19 -181 0 -163 -1 -174 -19 -174 -24 0
-31 -35 -31 -161 0 -92 -1 -99 -20 -99 -18 0 -20 -7 -20 -65 0 -58 -2 -65 -20
-65 -18 0 -20 -7 -20 -65 0 -63 -1 -65 -25 -65 -22 0 -25 -4 -25 -40 0 -33 -3
-40 -20 -40 -17 0 -20 -7 -20 -45 0 -38 -3 -45 -20 -45 -14 0 -20 -7 -20 -21
0 -12 -8 -23 -19 -26 -13 -3 -22 -17 -26 -44 -5 -29 -11 -39 -26 -39 -14 0
-19 -7 -19 -25 0 -14 -9 -34 -20 -45 -11 -11 -20 -29 -20 -40 0 -14 -7 -20
-21 -20 -12 0 -23 -8 -26 -19 -3 -11 -13 -21 -24 -24 -11 -3 -19 -14 -19 -26
0 -14 -6 -21 -20 -21 -13 0 -20 -7 -20 -20 0 -12 -7 -20 -16 -20 -9 0 -18 -9
-21 -19 -3 -11 -15 -21 -27 -23 -13 -2 -22 -11 -24 -25 -2 -15 -10 -23 -23
-23 -12 0 -19 -7 -19 -20 0 -15 -7 -20 -25 -20 -18 0 -25 -5 -25 -20 0 -13 -7
-20 -20 -20 -15 0 -20 -7 -20 -25 0 -22 -4 -25 -39 -25 -31 0 -41 -4 -46 -20
-3 -11 -15 -20 -26 -20 -12 0 -19 -7 -19 -19 0 -16 -8 -20 -42 -23 -36 -2 -44
-7 -46 -25 -3 -19 -10 -23 -43 -23 -32 0 -39 -3 -39 -20 0 -17 -7 -20 -45 -20
-38 0 -45 -3 -45 -20 0 -19 -7 -20 -129 -20 -120 0 -129 1 -134 20 -4 16 -14
20 -45 20 -31 0 -41 4 -45 20 -4 16 -14 20 -46 20 -37 0 -41 2 -41 25 0 18 -5
25 -20 25 -13 0 -20 7 -20 20 0 13 -7 20 -20 20 -13 0 -20 7 -20 20 0 15 -7
20 -25 20 -23 0 -25 4 -25 45 0 38 -3 45 -20 45 -17 0 -20 7 -20 41 0 32 -4
42 -20 46 -19 5 -20 16 -22 367 l-3 361 -22 3 c-22 3 -23 8 -23 89 0 76 -2 85
-20 90 -16 4 -20 14 -20 44 0 32 -4 39 -19 39 -16 0 -20 8 -23 43 -2 35 -7 43
-25 45 -15 2 -23 10 -23 23 0 12 -7 19 -20 19 -15 0 -20 7 -20 25 0 18 -5 25
-19 25 -10 0 -21 9 -24 20 -3 12 -14 20 -26 20 -14 0 -21 6 -21 19 0 14 -10
20 -39 25 -27 4 -40 12 -44 26 -4 16 -13 20 -46 20 -34 0 -41 3 -41 20 0 18
-7 20 -64 20 -53 0 -64 3 -68 18 -7 26 -92 32 -450 32 -281 0 -288 0 -288 20
0 18 -7 20 -65 20 -58 0 -65 2 -65 20 0 17 -7 20 -39 20 -31 0 -40 4 -44 21
-3 11 -15 23 -26 26 -12 3 -21 12 -21 20 0 8 -9 17 -20 20 -11 3 -20 14 -20
24 0 12 -7 19 -18 19 -11 0 -24 11 -30 25 -6 14 -18 25 -27 25 -11 0 -15 11
-15 40 0 33 -3 40 -20 40 -19 0 -20 7 -20 175 0 168 1 175 20 175 17 0 20 7
20 45 0 37 3 45 19 45 20 0 31 19 31 55 0 14 7 25 20 28 11 3 20 14 20 25 0
11 9 22 20 25 15 4 20 14 20 41 0 29 4 36 20 36 13 0 22 9 26 25 4 16 13 25
25 25 15 0 19 7 19 40 0 33 3 40 20 40 15 0 20 7 20 25 0 20 5 25 25 25 18 0
25 5 25 20 0 13 7 20 20 20 13 0 20 7 20 20 0 13 7 20 20 20 15 0 20 7 20 25
0 23 4 25 41 25 32 0 42 4 46 20 3 11 14 20 24 20 12 0 19 7 19 19 0 12 9 21
25 25 16 4 25 13 25 26 0 17 7 20 40 20 33 0 40 3 40 20 0 14 7 20 21 20 12 0
23 8 26 20 3 13 14 20 28 20 36 0 55 11 55 31 0 16 8 19 45 19 38 0 45 3 45
20 0 18 7 20 54 20 42 0 58 4 68 19 7 10 32 22 56 26 32 5 42 11 42 26 0 17 8
19 81 19 72 0 81 2 86 20 5 18 14 20 104 20 88 0 100 2 111 20 12 19 24 20
185 20 166 0 173 -1 173 -20z"/>
<path d="M2065 3500 c-3 -11 -15 -20 -26 -20 -12 0 -19 -7 -19 -19 0 -16 -8
-20 -42 -23 -34 -2 -44 -7 -46 -23 -3 -11 -13 -28 -23 -38 -10 -10 -19 -29
-19 -42 0 -18 -5 -25 -19 -25 -21 0 -31 -19 -31 -60 0 -19 -6 -29 -20 -33 -19
-5 -20 -14 -20 -151 0 -139 1 -146 20 -146 15 0 20 -7 20 -29 0 -42 10 -61 31
-61 15 0 19 -7 19 -40 0 -29 4 -40 15 -40 9 0 20 -11 25 -25 8 -21 16 -25 50
-25 33 0 40 -3 40 -20 0 -13 7 -20 19 -20 13 0 21 -8 23 -22 l3 -23 210 0 210
0 3 23 c3 16 10 22 28 22 17 0 24 5 24 20 0 13 7 20 20 20 13 0 20 7 20 19 0
13 8 21 23 23 14 2 23 11 25 26 2 14 10 22 23 22 12 0 19 7 19 20 0 13 7 20
20 20 18 0 20 7 20 84 0 74 2 84 19 89 39 10 39 127 0 127 -17 0 -19 8 -19 86
0 77 -2 86 -20 91 -11 3 -20 14 -20 24 0 12 -7 19 -20 19 -13 0 -20 7 -20 20
0 15 -7 20 -25 20 -20 0 -25 5 -25 25 0 18 -5 25 -20 25 -13 0 -20 7 -20 20 0
17 -7 20 -45 20 -38 0 -45 3 -45 20 0 19 -7 20 -189 20 -181 0 -190 -1 -196
-20z m293 -240 c45 0 52 -3 52 -20 0 -13 7 -20 20 -20 17 0 20 -7 20 -40 0
-34 4 -41 25 -46 23 -6 25 -10 25 -70 0 -62 -1 -64 -25 -64 -22 0 -25 -4 -25
-40 0 -33 -3 -40 -20 -40 -15 0 -20 -7 -20 -25 l0 -25 -129 0 c-127 0 -130 0
-133 23 -2 14 -11 23 -25 25 -15 2 -23 10 -23 23 0 12 -7 19 -20 19 -19 0 -20
7 -20 110 0 103 1 110 20 110 13 0 20 7 20 20 0 15 7 20 25 20 18 0 25 5 25
20 0 16 8 20 58 23 31 2 66 2 77 0 11 -1 44 -3 73 -3z"/>
<path d="M868 3303 c-10 -2 -18 -13 -18 -24 0 -14 -7 -19 -25 -19 -18 0 -25
-5 -25 -20 0 -13 -7 -20 -20 -20 -13 0 -20 -7 -20 -20 0 -13 -7 -20 -20 -20
-15 0 -20 -7 -20 -25 0 -20 -5 -25 -25 -25 -18 0 -25 -5 -25 -20 0 -13 -7 -20
-20 -20 -13 0 -20 -7 -20 -19 0 -11 -9 -23 -20 -26 -19 -6 -20 -15 -20 -196 0
-182 1 -189 20 -189 16 0 20 -7 20 -35 0 -24 6 -39 20 -47 11 -7 20 -21 20
-30 0 -13 8 -18 25 -18 20 0 25 -5 25 -25 0 -18 5 -25 19 -25 10 0 21 -9 24
-20 4 -16 14 -20 46 -20 34 0 41 -3 41 -20 0 -18 7 -20 64 -20 59 0 65 -2 68
-22 2 -18 11 -24 38 -26 61 -6 118 7 125 29 5 16 16 19 71 19 57 0 64 2 64 20
0 13 7 20 20 20 13 0 20 7 20 20 0 15 7 20 25 20 20 0 25 5 25 25 0 18 5 25
20 25 13 0 20 7 20 20 0 13 7 20 20 20 13 0 20 7 20 19 0 13 8 21 23 23 20 3
22 9 25 67 2 46 8 68 20 77 12 8 17 32 20 82 4 64 2 71 -17 77 -19 6 -21 14
-21 71 0 70 -12 104 -35 104 -8 0 -15 9 -15 20 0 13 -7 20 -20 20 -15 0 -20 7
-20 25 0 18 -5 25 -20 25 -13 0 -20 7 -20 20 0 15 -7 20 -25 20 -18 0 -25 5
-25 20 0 17 -7 20 -39 20 -33 0 -40 4 -45 25 l-6 25 -173 -1 c-94 -1 -180 -3
-189 -6z m284 -275 c2 -15 11 -24 24 -26 12 -2 24 -12 27 -23 3 -10 12 -19 21
-19 9 0 16 -8 16 -20 0 -13 7 -20 20 -20 18 0 20 -7 20 -64 0 -56 -3 -66 -20
-71 -16 -5 -20 -15 -20 -46 0 -33 -3 -39 -21 -39 -12 0 -23 -8 -26 -20 -4 -15
-14 -20 -39 -20 -45 0 -84 -16 -84 -35 0 -9 -9 -15 -25 -15 -18 0 -25 5 -25
19 0 21 -19 31 -60 31 -19 0 -29 6 -33 20 -3 11 -12 20 -21 20 -9 0 -16 8 -16
20 0 13 -7 20 -20 20 -19 0 -20 7 -20 90 0 83 1 90 20 90 17 0 20 7 20 40 0
38 2 40 29 40 29 0 61 22 61 41 0 5 38 9 84 9 80 0 85 -1 88 -22z"/>
<path d="M2933 2720 c-4 -16 -14 -20 -49 -20 -36 0 -44 -3 -44 -19 0 -14 -10
-21 -36 -26 -23 -4 -38 -13 -41 -25 -3 -10 -15 -20 -27 -22 -16 -2 -22 -11
-24 -39 -2 -27 -9 -38 -23 -42 -11 -3 -19 -14 -19 -26 0 -14 -6 -21 -20 -21
-19 0 -20 -7 -20 -215 0 -208 1 -215 20 -215 13 0 20 -7 20 -20 0 -13 7 -20
19 -20 16 0 20 -8 23 -42 2 -34 7 -44 23 -46 11 -3 28 -13 38 -23 10 -10 29
-19 42 -19 17 0 25 -6 27 -22 2 -19 10 -24 44 -26 32 -2 43 -8 47 -23 5 -18
15 -19 135 -19 138 0 162 4 162 25 0 9 15 15 43 17 35 2 43 7 45 26 2 14 10
22 23 22 12 0 19 7 19 20 0 15 7 20 25 20 18 0 25 5 25 20 0 13 7 20 20 20 15
0 20 7 20 25 0 18 5 25 20 25 13 0 20 7 20 19 0 13 8 21 23 23 l22 3 0 210 0
210 -22 3 c-15 2 -23 10 -23 24 0 11 -8 22 -20 25 -11 3 -20 14 -20 24 0 12
-7 19 -20 19 -13 0 -20 7 -20 20 0 15 -7 20 -25 20 -20 0 -25 5 -25 25 0 18
-5 25 -20 25 -13 0 -20 7 -20 20 0 17 -7 20 -43 20 -31 0 -45 5 -55 20 -11 18
-23 20 -148 20 -127 0 -136 -1 -141 -20z m217 -260 c0 -17 7 -20 40 -20 33 0
40 -3 40 -20 0 -15 7 -20 25 -20 24 0 25 -2 25 -65 0 -45 4 -65 13 -66 10 0
10 -2 0 -6 -8 -3 -13 -26 -13 -63 0 -53 -2 -59 -22 -62 -15 -2 -24 -11 -26
-25 -3 -19 -10 -23 -43 -23 -32 0 -39 -3 -39 -20 0 -18 -7 -20 -70 -20 -63 0
-70 2 -70 20 0 17 -7 20 -40 20 -34 0 -40 3 -40 21 0 12 -8 23 -20 26 -15 4
-20 14 -20 42 0 53 -10 81 -29 82 -15 1 -15 2 0 6 20 5 29 33 29 91 0 35 3 42
20 42 13 0 20 7 20 20 0 17 7 20 39 20 31 0 41 4 46 20 5 17 15 20 71 20 57 0
64 -2 64 -20z"/>
<path d="M2722 1518 c-7 -7 -12 -18 -12 -25 0 -8 -14 -13 -40 -13 -33 0 -40
-3 -40 -20 0 -17 -7 -20 -45 -20 -38 0 -45 -3 -45 -20 0 -13 -7 -20 -20 -20
-15 0 -20 -7 -20 -24 0 -18 -6 -25 -22 -28 -19 -2 -24 -10 -26 -40 -3 -30 -7
-38 -23 -38 -17 0 -19 -7 -19 -64 0 -55 -3 -64 -20 -69 -18 -5 -20 -14 -20
-82 0 -68 2 -77 20 -82 17 -5 20 -14 20 -70 0 -56 3 -66 20 -70 11 -3 20 -14
20 -24 0 -13 7 -19 24 -19 22 0 25 -5 28 -42 3 -42 4 -43 41 -46 29 -3 37 -7
37 -23 0 -14 7 -19 25 -19 18 0 25 -5 25 -20 0 -18 7 -20 64 -20 54 0 64 -3
69 -18 5 -20 44 -32 102 -32 46 0 65 9 65 31 0 17 8 19 85 19 78 0 85 2 85 20
0 13 7 20 19 20 11 0 23 9 26 20 3 11 15 20 26 20 14 0 19 7 19 25 0 18 5 25
20 25 13 0 20 7 20 19 0 13 8 21 23 23 18 2 23 10 25 46 3 34 7 42 23 42 18 0
19 8 19 185 0 160 -2 186 -16 192 -8 3 -20 16 -25 29 -5 14 -17 24 -29 24 -13
0 -20 7 -20 20 0 13 -7 20 -20 20 -15 0 -20 7 -20 25 0 18 -5 25 -20 25 -13 0
-20 7 -20 20 0 15 -7 20 -25 20 -18 0 -25 5 -25 20 0 17 -7 20 -40 20 -28 0
-46 7 -64 25 -24 24 -31 25 -144 25 -78 0 -122 -4 -130 -12z m208 -267 c0 -16
9 -21 45 -27 44 -6 45 -7 45 -45 0 -32 3 -39 20 -39 19 0 20 -7 20 -90 0 -83
-1 -90 -20 -90 -17 0 -20 -7 -20 -40 l0 -40 -45 0 c-41 0 -45 -2 -45 -25 0
-25 -1 -25 -84 -25 -81 0 -84 1 -90 25 -4 16 -13 25 -26 25 -13 0 -20 7 -20
20 0 13 -7 20 -19 20 -15 0 -19 10 -23 56 -3 39 -10 59 -21 66 -24 13 -21 49
3 55 16 4 20 14 20 44 0 29 4 39 16 39 9 0 18 9 21 19 3 11 14 21 25 24 11 3
22 15 25 26 5 19 13 21 89 21 76 0 84 -2 84 -19z"/>
</g>
</svg>
